<?xml version="1.0" encoding="utf-8"?>
<svg viewBox="0 0 300 300" xmlns="http://www.w3.org/2000/svg">
  <g transform="matrix(0.1000000014901161, 0, 0, -0.1000000014901161, 0, 300)" fill="#000000" stroke="none">
    <path d="M 1095.149 2664.982 C 927.566 2638.948 922.02 2637.994 865.409 2612.443 C 810.557 2587.685 752.276 2558.587 700.75 2533.664 C 595.31 2482.662 464.999 2351.525 391.894 2271.708 C 284.783 2154.762 201.545 1982.074 149.149 1808.519 C 99.944 1645.528 88.66 1426.361 122.376 1268.154 C 146.174 1156.007 179.889 1062.885 235.42 952.741 C 520.013 394.009 1210.176 159.703 1769.446 432.06 C 1906.289 499.146 1977.685 551.215 2092.712 666.366 C 2213.689 789.527 2276.161 877.642 2261.286 904.677 C 2256.328 914.691 2060.981 1036.851 1826.96 1177.034 C 1593.93 1316.216 1389.658 1438.377 1374.784 1448.39 L 1347.019 1464.41 L 1806.135 1739.771 C 2058.998 1890.968 2273.187 2022.142 2283.102 2032.154 C 2298.968 2048.175 2298.968 2051.18 2284.094 2082.219 C 2190.882 2265.46 1963.803 2477.738 1760.521 2568.856 C 1548.316 2664.982 1310.329 2700.029 1095.149 2664.982 Z" style=""/>
    <g/>
    <path d="M 1875 1591 C 1822 1558 1768.147 1472.06 1820 1382 C 1847.077 1334.971 1886.395 1315.132 1945 1310 C 2003.605 1304.868 2049 1348 2070 1382 C 2096 1425 2096 1495 2070 1538 C 2029 1605 1938 1630 1875 1591 Z"/>
    <path d="M 2290 1592 C 2182 1538 2183 1387 2293 1332 C 2376 1290 2461 1324 2495 1414 C 2542 1536 2409 1652 2290 1592 Z"/>
    <path d="M 2702 1594 C 2658 1571 2628 1527 2623 1476 C 2611 1374 2717 1288 2814 1320 C 2859 1334 2907 1389 2916 1435 C 2925 1484 2897 1554 2858 1581 C 2818 1610 2745 1616 2702 1594 Z"/>
    <path d="M 1077.904 2714.373 C 912.398 2688.793 906.922 2687.856 851.01 2662.75 C 796.839 2638.424 739.28 2609.832 688.393 2585.345 C 584.258 2535.233 455.566 2406.387 383.366 2327.962 C 277.585 2213.056 195.378 2043.384 143.632 1872.857 C 95.035 1712.714 83.894 1497.369 117.189 1341.925 C 140.695 1231.733 173.992 1140.238 228.834 1032.018 C 509.897 483.037 1191.505 252.821 1743.839 520.424 C 1878.984 586.34 1949.495 637.499 2063.097 750.642 C 2182.573 871.652 2244.271 958.23 2229.581 984.792 C 2224.684 994.631 2031.758 1114.659 1800.639 1252.396 C 1570.5 1389.147 1368.758 1509.174 1354.071 1519.015 L 1326.649 1534.756 L 1780.074 1805.309 C 2029.8 1953.869 2241.331 2082.751 2251.125 2092.588 C 2266.794 2108.33 2266.794 2111.283 2252.105 2141.78 C 2160.047 2321.824 1935.784 2530.396 1735.023 2619.924 C 1525.45 2714.373 1290.416 2748.807 1077.904 2714.373 Z" style="stroke-miterlimit: 3.62; paint-order: fill; stroke: rgb(235, 5, 5); fill-rule: nonzero; fill: rgb(255, 255, 8);"/>
    <path d="M 2697.73 1644.952 C 2644.73 1611.952 2590.877 1526.012 2642.73 1435.952 C 2669.807 1388.923 2709.125 1369.084 2767.73 1363.952 C 2826.335 1358.82 2871.73 1401.952 2892.73 1435.952 C 2918.73 1478.952 2918.73 1548.952 2892.73 1591.952 C 2851.73 1658.952 2760.73 1683.952 2697.73 1644.952 Z" style="fill: rgb(255, 255, 8);"/>
    <path d="M 2290.057 1648.762 C 2237.057 1615.762 2183.204 1529.822 2235.057 1439.762 C 2262.134 1392.733 2301.452 1372.894 2360.057 1367.762 C 2418.662 1362.63 2464.057 1405.762 2485.057 1439.762 C 2511.057 1482.762 2511.057 1552.762 2485.057 1595.762 C 2444.057 1662.762 2353.057 1687.762 2290.057 1648.762 Z" style="fill: rgb(255, 255, 8);"/>
    <path d="M 1870.435 1647.636 C 1817.435 1614.636 1763.582 1528.696 1815.435 1438.636 C 1842.512 1391.607 1881.83 1371.768 1940.435 1366.636 C 1999.04 1361.504 2044.435 1404.636 2065.435 1438.636 C 2091.435 1481.636 2091.435 1551.636 2065.435 1594.636 C 2024.435 1661.636 1933.435 1686.636 1870.435 1647.636 Z" style="fill: rgb(255, 255, 8);"/>
  </g>
</svg>